<svg width="20" height="21" viewBox="0 0 20 21" fill="none" xmlns="http://www.w3.org/2000/svg">
<path d="M10 1.80421C12.6719 1.80421 12.9883 1.81595 14.0391 1.86292C15.0156 1.90597 15.543 2.07034 15.8945 2.20732C16.3594 2.38735 16.6953 2.60652 17.043 2.95484C17.3945 3.30707 17.6094 3.63973 17.7891 4.10546C17.9258 4.45769 18.0898 4.98995 18.1328 5.96446C18.1797 7.02116 18.1914 7.33817 18.1914 10.0112C18.1914 12.6882 18.1797 13.0052 18.1328 14.058C18.0898 15.0364 17.9258 15.5647 17.7891 15.917C17.6094 16.3827 17.3906 16.7193 17.043 17.0676C16.6914 17.4198 16.3594 17.6351 15.8945 17.8151C15.543 17.9521 15.0117 18.1165 14.0391 18.1595C12.9844 18.2065 12.668 18.2182 10 18.2182C7.32812 18.2182 7.01172 18.2065 5.96094 18.1595C4.98438 18.1165 4.45703 17.9521 4.10547 17.8151C3.64062 17.6351 3.30469 17.4159 2.95703 17.0676C2.60547 16.7154 2.39062 16.3827 2.21094 15.917C2.07422 15.5647 1.91016 15.0325 1.86719 14.058C1.82031 13.0013 1.80859 12.6843 1.80859 10.0112C1.80859 7.33426 1.82031 7.01725 1.86719 5.96446C1.91016 4.98604 2.07422 4.45769 2.21094 4.10546C2.39062 3.63973 2.60937 3.30315 2.95703 2.95484C3.30859 2.6026 3.64062 2.38735 4.10547 2.20732C4.45703 2.07034 4.98828 1.90597 5.96094 1.86292C7.01172 1.81595 7.32812 1.80421 10 1.80421ZM10 0C7.28516 0 6.94531 0.0117411 5.87891 0.0587054C4.81641 0.10567 4.08594 0.277872 3.45312 0.524434C2.79297 0.782738 2.23438 1.12323 1.67969 1.68289C1.12109 2.23863 0.78125 2.79829 0.523437 3.45579C0.277344 4.09372 0.105469 4.82167 0.0585938 5.88619C0.0117188 6.95854 0 7.29903 0 10.019C0 12.7391 0.0117188 13.0796 0.0585938 14.148C0.105469 15.2125 0.277344 15.9444 0.523437 16.5784C0.78125 17.2398 1.12109 17.7995 1.67969 18.3552C2.23438 18.911 2.79297 19.2554 3.44922 19.5097C4.08594 19.7563 4.8125 19.9285 5.875 19.9755C6.94141 20.0224 7.28125 20.0342 9.99609 20.0342C12.7109 20.0342 13.0508 20.0224 14.1172 19.9755C15.1797 19.9285 15.9102 19.7563 16.543 19.5097C17.1992 19.2554 17.7578 18.911 18.3125 18.3552C18.8672 17.7995 19.2109 17.2398 19.4648 16.5823C19.7109 15.9444 19.8828 15.2164 19.9297 14.1519C19.9766 13.0835 19.9883 12.743 19.9883 10.023C19.9883 7.30295 19.9766 6.96246 19.9297 5.89402C19.8828 4.82949 19.7109 4.09763 19.4648 3.46362C19.2187 2.79829 18.8789 2.23863 18.3203 1.68289C17.7656 1.12714 17.207 0.782738 16.5508 0.528348C15.9141 0.281786 15.1875 0.109583 14.125 0.062619C13.0547 0.0117411 12.7148 0 10 0Z" fill="white"/>
<path d="M10 4.87256C7.16406 4.87256 4.86328 7.17771 4.86328 10.019C4.86328 12.8604 7.16406 15.1655 10 15.1655C12.8359 15.1655 15.1367 12.8604 15.1367 10.019C15.1367 7.17771 12.8359 4.87256 10 4.87256ZM10 13.3574C8.16016 13.3574 6.66797 11.8624 6.66797 10.019C6.66797 8.1757 8.16016 6.68068 10 6.68068C11.8398 6.68068 13.332 8.1757 13.332 10.019C13.332 11.8624 11.8398 13.3574 10 13.3574Z" fill="white"/>
<path d="M16.5391 4.66919C16.5391 5.33447 16 5.87061 15.3398 5.87061C14.6758 5.87061 14.1406 5.33056 14.1406 4.66919C14.1406 4.00391 14.6797 3.46777 15.3398 3.46777C16 3.46777 16.5391 4.00782 16.5391 4.66919Z" fill="white"/>
</svg>
