<svg width="20" height="15" viewBox="0 0 20 15" fill="none" xmlns="http://www.w3.org/2000/svg">
<path d="M19.8008 3.05061C19.8008 3.05061 19.6055 1.66912 19.0039 1.06252C18.2422 0.264148 17.3906 0.260234 17 0.213271C14.2031 0.00976551 10.0039 0.00976562 10.0039 0.00976562H9.99609C9.99609 0.00976562 5.79688 0.00976551 3 0.213271C2.60938 0.260234 1.75781 0.264148 0.996094 1.06252C0.394531 1.66912 0.203125 3.05061 0.203125 3.05061C0.203125 3.05061 0 4.67474 0 6.29496V7.81343C0 9.43365 0.199219 11.0578 0.199219 11.0578C0.199219 11.0578 0.394531 12.4393 0.992187 13.0459C1.75391 13.8442 2.75391 13.8168 3.19922 13.9029C4.80078 14.0556 10 14.1025 10 14.1025C10 14.1025 14.2031 14.0947 17 13.8951C17.3906 13.8482 18.2422 13.8442 19.0039 13.0459C19.6055 12.4393 19.8008 11.0578 19.8008 11.0578C19.8008 11.0578 20 9.43756 20 7.81343V6.29496C20 4.67474 19.8008 3.05061 19.8008 3.05061ZM7.93359 9.65672V4.02509L13.3359 6.85069L7.93359 9.65672Z" fill="white"/>
</svg>
